<svg width="463.11878662109376px" height="122px" xmlns="http://www.w3.org/2000/svg" viewBox="18.44060668945312 14 463.11878662109376 122" style="background: rgba(0, 0, 0, 0);" preserveAspectRatio="xMidYMid"><defs><filter id="editing-metal-beveled"><feGaussianBlur stdDeviation="4" in="SourceAlpha" result="blur"></feGaussianBlur><feSpecularLighting surfaceScale="5" specularConstant="0.8" specularExponent="7.5" lighting-color="#fff" in="blur" result="specular"><fePointLight x="-250" y="-50" z="300"></fePointLight></feSpecularLighting><feComposite operator="in" in="specular" in2="SourceAlpha" result="comp"></feComposite><feComposite in="SourceGraphic" in2="comp" operator="arithmetic" k1="0" k2="1" k3="1" k4="0"></feComposite></filter></defs><g filter="url(#editing-metal-beveled)"><g transform="translate(86.3799819946289, 97.39999961853027)"><path d="M7.17 0L10.88-18.82L10.88-18.82Q9.02-36.16 2.50-39.87L2.50-39.87L2.50-39.87Q3.84-41.54 6.02-42.46L6.02-42.46L6.02-42.46Q8.19-43.39 10.82-43.39L10.82-43.39L10.82-43.39Q13.44-43.39 15.42-42.46L15.42-42.46L15.42-42.46Q17.41-41.54 18.69-39.55L18.69-39.55L18.69-39.55Q21.12-35.78 21.12-26.75L21.12-26.75L21.12-22.14L21.12-22.14Q24.96-33.41 28.80-38.27L28.80-38.27L28.80-38.27Q32.70-43.26 37.57-43.26L37.57-43.26L37.57-43.26Q39.49-43.26 40.77-42.27L40.77-42.27L40.77-42.27Q42.05-41.28 42.69-39.81L42.69-39.81L42.69-39.81Q37.76-37.63 33.02-31.36L33.02-31.36L33.02-31.36Q28.29-25.09 25.22-16.32L25.22-16.32L21.44 0L7.17 0ZM50.05 1.28L50.05 1.28L50.05 1.28Q35.97 1.28 35.97-11.97L35.97-11.97L35.97-11.97Q35.97-21.38 41.15-27.46L41.15-27.46L41.15-27.46Q46.66-33.92 56.19-33.92L56.19-33.92L56.19-33.92Q63.10-33.92 66.62-30.72L66.62-30.72L66.62-30.72Q70.14-27.52 70.14-20.80L70.14-20.80L70.14-20.80Q70.14-10.56 64.64-4.61L64.64-4.61L64.64-4.61Q59.26 1.28 50.05 1.28ZM51.71-26.56L51.71-26.56L51.71-26.56Q50.94-24.83 50.34-22.24L50.34-22.24L50.34-22.24Q49.73-19.65 48.96-15.55L48.96-15.55L48.96-15.55Q48.19-11.46 48.19-6.40L48.19-6.40L48.19-6.40Q48.19-4.74 48.74-3.65L48.74-3.65L48.74-3.65Q49.28-2.56 50.75-2.56L50.75-2.56L50.75-2.56Q52.22-2.56 53.15-3.26L53.15-3.26L53.15-3.26Q54.08-3.97 54.78-5.63L54.78-5.63L54.78-5.63Q56.06-8.58 57.09-14.05L57.09-14.05L57.09-14.05Q58.11-19.52 58.21-21.89L58.21-21.89L58.21-21.89Q58.30-24.26 58.30-26.02L58.30-26.02L58.30-26.02Q58.30-27.78 57.79-28.93L57.79-28.93L57.79-28.93Q57.28-30.08 55.84-30.08L55.84-30.08L55.84-30.08Q54.40-30.08 53.44-29.18L53.44-29.18L53.44-29.18Q52.48-28.29 51.71-26.56ZM94.46-2.69L94.46-2.69L94.46-2.69Q91.39 1.28 83.78 1.28L83.78 1.28L83.78 1.28Q79.81 1.28 76.93-1.12L76.93-1.12L76.93-1.12Q74.05-3.52 74.05-6.98L74.05-6.98L74.05-6.98Q74.05-8.90 74.24-9.86L74.24-9.86L78.53-32.64L91.52-33.92L86.85-9.22L86.85-9.22Q86.59-7.81 86.59-6.98L86.59-6.98L86.59-6.98Q86.59-3.26 88.83-3.26L88.83-3.26L88.83-3.26Q91.33-3.26 93.12-6.66L93.12-6.66L93.12-6.66Q93.70-7.74 93.95-9.15L93.95-9.15L98.50-32.64L111.10-33.92L106.37-8.96L106.37-8.96Q106.18-8 106.18-6.98L106.18-6.98L106.18-6.98Q106.18-5.95 106.75-4.83L106.75-4.83L106.75-4.83Q107.33-3.71 109.18-3.46L109.18-3.46L109.18-3.46Q108.80-1.92 107.46-0.90L107.46-0.90L107.46-0.90Q104.64 1.28 101.60 1.28L101.60 1.28L101.60 1.28Q98.56 1.28 96.77 0.19L96.77 0.19L96.77 0.19Q94.98-0.90 94.46-2.69ZM134.59-17.98L134.59-17.98L134.59-17.98Q136.90-22.08 136.90-26.24L136.90-26.24L136.90-26.24Q136.90-28.99 134.91-28.99L134.91-28.99L134.91-28.99Q133.38-28.99 131.78-26.37L131.78-26.37L131.78-26.37Q130.11-23.74 129.60-20.35L129.60-20.35L126.27 0L113.02 1.28L119.55-32.64L130.11-33.92L128.96-27.46L128.96-27.46Q132.10-33.92 139.14-33.92L139.14-33.92L139.14-33.92Q142.85-33.92 144.86-32L144.86-32L144.86-32Q146.88-30.08 146.88-26.14L146.88-26.14L146.88-26.14Q146.88-22.21 144.29-19.71L144.29-19.71L144.29-19.71Q141.70-17.22 137.28-17.22L137.28-17.22L137.28-17.22Q135.36-17.22 134.59-17.98ZM186.05-29.57L186.05-29.57L186.05-29.57Q187.01-31.49 187.01-33.28L187.01-33.28L187.01-33.28Q187.01-35.07 186.82-36.06L186.82-36.06L186.82-36.06Q186.62-37.06 186.18-37.82L186.18-37.82L186.18-37.82Q185.22-39.49 183.30-39.49L183.30-39.49L183.30-39.49Q180.93-39.49 179.01-37.76L179.01-37.76L179.01-37.76Q176.96-35.97 176.96-33.15L176.96-33.15L176.96-33.15Q176.96-31.36 178.21-29.98L178.21-29.98L178.21-29.98Q179.46-28.61 181.38-27.33L181.38-27.33L181.38-27.33Q183.30-26.05 185.47-24.77L185.47-24.77L185.47-24.77Q187.65-23.49 189.57-21.95L189.57-21.95L189.57-21.95Q193.98-18.43 193.98-13.70L193.98-13.70L193.98-13.70Q193.98-10.50 192.29-7.78L192.29-7.78L192.29-7.78Q190.59-5.06 187.78-3.07L187.78-3.07L187.78-3.07Q181.63 1.28 173.50 1.28L173.50 1.28L173.50 1.28Q166.91 1.28 163.52-0.86L163.52-0.86L163.52-0.86Q160.13-3.01 160.13-6.27L160.13-6.27L160.13-6.27Q160.13-12.10 164.67-13.57L164.67-13.57L164.67-13.57Q165.95-14.02 167.90-14.02L167.90-14.02L167.90-14.02Q169.86-14.02 172.10-13.18L172.10-13.18L172.10-13.18Q171.07-10.56 171.07-8.19L171.07-8.19L171.07-8.19Q171.07-3.07 174.72-3.07L174.72-3.07L174.72-3.07Q177.09-3.07 179.04-4.80L179.04-4.80L179.04-4.80Q180.99-6.53 180.99-8.48L180.99-8.48L180.99-8.48Q180.99-10.43 179.74-11.84L179.74-11.84L179.74-11.84Q178.50-13.25 176.64-14.37L176.64-14.37L176.64-14.37Q174.78-15.49 172.64-16.58L172.64-16.58L172.64-16.58Q170.50-17.66 168.64-19.20L168.64-19.20L168.64-19.20Q164.29-22.72 164.29-28.35L164.29-28.35L164.29-28.35Q164.29-32 166.08-34.85L166.08-34.85L166.08-34.85Q167.87-37.70 170.75-39.62L170.75-39.62L170.75-39.62Q176.51-43.52 183.58-43.52L183.58-43.52L183.58-43.52Q190.66-43.52 194.08-41.41L194.08-41.41L194.08-41.41Q197.50-39.30 197.50-35.71L197.50-35.71L197.50-35.71Q197.50-32.58 195.07-30.59L195.07-30.59L195.07-30.59Q192.96-28.93 190.40-28.93L190.40-28.93L190.40-28.93Q187.84-28.93 186.05-29.57ZM199.87-6.40L199.87-6.40L199.87-6.40Q199.87-8.13 200.77-12.48L200.77-12.48L204.16-29.76L200.38-29.76L200.64-31.68L200.64-31.68Q208.32-33.98 215.74-39.62L215.74-39.62L218.82-39.62L217.28-32.64L222.27-32.64L221.70-29.76L216.77-29.76L213.50-12.48L213.50-12.48Q212.67-8.51 212.67-7.17L212.67-7.17L212.67-7.17Q212.67-4.10 215.36-3.46L215.36-3.46L215.36-3.46Q214.72-1.28 212.42 0L212.42 0L212.42 0Q210.11 1.28 206.85 1.28L206.85 1.28L206.85 1.28Q203.58 1.28 201.73-0.77L201.73-0.77L201.73-0.77Q199.87-2.82 199.87-6.40ZM235.65 1.28L235.65 1.28L235.65 1.28Q221.57 1.28 221.57-11.97L221.57-11.97L221.57-11.97Q221.57-21.38 226.75-27.46L226.75-27.46L226.75-27.46Q232.26-33.92 241.79-33.92L241.79-33.92L241.79-33.92Q248.70-33.92 252.22-30.72L252.22-30.72L252.22-30.72Q255.74-27.52 255.74-20.80L255.74-20.80L255.74-20.80Q255.74-10.56 250.24-4.61L250.24-4.61L250.24-4.61Q244.86 1.28 235.65 1.28ZM237.31-26.56L237.31-26.56L237.31-26.56Q236.54-24.83 235.94-22.24L235.94-22.24L235.94-22.24Q235.33-19.65 234.56-15.55L234.56-15.55L234.56-15.55Q233.79-11.46 233.79-6.40L233.79-6.40L233.79-6.40Q233.79-4.74 234.34-3.65L234.34-3.65L234.34-3.65Q234.88-2.56 236.35-2.56L236.35-2.56L236.35-2.56Q237.82-2.56 238.75-3.26L238.75-3.26L238.75-3.26Q239.68-3.97 240.38-5.63L240.38-5.63L240.38-5.63Q241.66-8.58 242.69-14.05L242.69-14.05L242.69-14.05Q243.71-19.52 243.81-21.89L243.81-21.89L243.81-21.89Q243.90-24.26 243.90-26.02L243.90-26.02L243.90-26.02Q243.90-27.78 243.39-28.93L243.39-28.93L243.39-28.93Q242.88-30.08 241.44-30.08L241.44-30.08L241.44-30.08Q240.00-30.08 239.04-29.18L239.04-29.18L239.04-29.18Q238.08-28.29 237.31-26.56ZM279.55-17.98L279.55-17.98L279.55-17.98Q281.86-22.08 281.86-26.24L281.86-26.24L281.86-26.24Q281.86-28.99 279.87-28.99L279.87-28.99L279.87-28.99Q278.34-28.99 276.74-26.37L276.74-26.37L276.74-26.37Q275.07-23.74 274.56-20.35L274.56-20.35L271.23 0L257.98 1.28L264.51-32.64L275.07-33.92L273.92-27.46L273.92-27.46Q277.06-33.92 284.10-33.92L284.10-33.92L284.10-33.92Q287.81-33.92 289.82-32L289.82-32L289.82-32Q291.84-30.08 291.84-26.14L291.84-26.14L291.84-26.14Q291.84-22.21 289.25-19.71L289.25-19.71L289.25-19.71Q286.66-17.22 282.24-17.22L282.24-17.22L282.24-17.22Q280.32-17.22 279.55-17.98ZM318.78-10.82L318.78-10.82L318.78-10.82Q320.38-9.73 320.38-7.33L320.38-7.33L320.38-7.33Q320.38-4.93 319.17-3.39L319.17-3.39L319.17-3.39Q317.95-1.86 315.97-0.83L315.97-0.83L315.97-0.83Q311.87 1.28 307.46 1.28L307.46 1.28L307.46 1.28Q303.04 1.28 300.45 0.32L300.45 0.32L300.45 0.32Q297.86-0.64 296.13-2.43L296.13-2.43L296.13-2.43Q292.74-5.82 292.74-12.03L292.74-12.03L292.74-12.03Q292.74-21.70 297.98-27.58L297.98-27.58L297.98-27.58Q303.62-33.92 313.41-33.92L313.41-33.92L313.41-33.92Q319.49-33.92 322.50-31.36L322.50-31.36L322.50-31.36Q324.74-29.44 324.74-26.30L324.74-26.30L324.74-26.30Q324.74-15.04 305.28-15.04L305.28-15.04L305.28-15.04Q305.02-13.38 305.02-11.97L305.02-11.97L305.02-11.97Q305.02-9.02 306.34-7.90L306.34-7.90L306.34-7.90Q307.65-6.78 310.08-6.78L310.08-6.78L310.08-6.78Q312.51-6.78 315.10-7.90L315.10-7.90L315.10-7.90Q317.70-9.02 318.78-10.82ZM305.73-17.79L305.73-17.79L305.73-17.79Q310.27-17.79 312.90-20.61L312.90-20.61L312.90-20.61Q315.52-23.30 315.52-27.58L315.52-27.58L315.52-27.58Q315.52-29.06 314.98-29.86L314.98-29.86L314.98-29.86Q314.43-30.66 313.34-30.66L313.34-30.66L313.34-30.66Q312.26-30.66 311.33-30.24L311.33-30.24L311.33-30.24Q310.40-29.82 309.44-28.42L309.44-28.42L309.44-28.42Q307.07-25.22 305.73-17.79Z" fill="#444"></path></g></g><style>text {
  font-size: 64px;
  font-family: Arial Black;
  dominant-baseline: central;
  text-anchor: middle;
}</style></svg>